<?xml version="1.0" standalone="no"?>
<!DOCTYPE svg PUBLIC "-//W3C//DTD SVG 1.1//EN" "http://www.w3.org/Graphics/SVG/1.1/DTD/svg11.dtd" >
<svg xmlns="http://www.w3.org/2000/svg">
<metadata>Generated by IcoMoon</metadata>
<defs>
<font id="icomoon" horiz-adv-x="1024">
<font-face units-per-em="1024" ascent="960" descent="-64" />
<missing-glyph horiz-adv-x="1024" />
<glyph unicode="&#x20;" horiz-adv-x="512" d="" />
<glyph unicode="&#xe900;" glyph-name="1" horiz-adv-x="1050" d="M971.167 330.102l-148.055 36.879c-48.637 12.027-99.95-5.076-131.218-44.362l-154.734-193.487c-133.089 79.373-244.531 190.548-323.902 323.904l193.485 154.734c39.020 31.268 56.389 82.58 44.362 131.218l-37.146 148.054c-10.691 42.759-49.172 72.958-93.268 72.958h-204.177c-26.725 0-52.38-11.224-70.553-30.733s-27.259-45.432-25.656-71.889c17.104-238.382 119.726-462.869 288.893-632.036s393.654-271.79 632.036-288.893c2.138-0.266 4.544-0.266 6.682-0.266 53.181 0.266 96.207 43.292 96.207 96.476v203.907c0 44.365-30.198 82.847-72.957 93.537zM92.73 885.706c6.147 6.681 14.698 10.423 23.785 10.423h203.908c14.7 0 27.528-9.888 31.002-24.319l37.146-148.054c6.149-24.319-2.67-49.976-22.18-65.743l-185.202-148.321c-55.587 109.837-88.458 229.564-97.010 352.497-0.535 8.552 2.405 17.104 8.552 23.518zM979.986 32.658c0-9.088-3.743-17.638-10.422-23.785-6.415-5.88-14.966-9.088-23.785-8.553-122.668 8.553-242.394 41.423-352.23 97.011l148.321 185.201c15.767 19.51 41.423 28.060 65.743 22.182l148.052-37.148c14.164-3.474 24.32-16.302 24.32-31.002v-203.907zM564.193 736.861c141.642-0.267 256.289-114.917 256.558-256.556 0-17.638 14.431-32.069 32.069-32.069s32.069 14.431 32.069 32.069c-0.266 176.916-143.777 320.428-320.696 320.695-17.636 0-32.069-14.431-32.069-32.069s14.164-32.070 32.069-32.070zM564.193 865.111c212.462-0.267 384.568-172.372 384.835-384.835 0-17.638 14.433-32.069 32.069-32.069 17.638 0 32.072 14.431 32.072 32.069-0.269 247.737-201.236 448.706-448.975 448.974-17.636 0-32.069-14.431-32.069-32.070s14.164-32.069 32.069-32.069z" />
<glyph unicode="&#xe901;" glyph-name="2" horiz-adv-x="1050" d="M503.726 951l-459.401-325.999c-15.2-10.801-24.2-28.201-24.2-46.802v-573.599c0-31.601 25.6-57.4 57.4-57.4h909.199c31.601 0 57.4 25.6 57.4 57.4v573.599c0 18.601-8.998 36.001-24.2 46.802l-459.4 325.999c-17.001 12-39.8 12-56.799 0zM333.724 313.8l-253.599-262.4v476.401l253.599-214.001zM379.725 275l131-110.4c12.401-10.401 30.6-10.401 43 0l131 110.4 258.798-267.802h-822.599l258.8 267.802zM730.524 313.8l253.601 214.001v-476.401l-253.601 262.4zM965.125 590.4l-419.799-354.399c-7.601-6.4-18.601-6.4-26.202 0l-419.999 354.399 413.999 293.6c11.402 8 26.601 8 38.001 0l414.001-293.6z" />
<glyph unicode="&#xe902;" glyph-name="3" horiz-adv-x="887" d="M739.401 833.2c-81.802 81.8-190.601 126.8-306.201 126.8s-224.6-45-306.4-126.8c-81.8-81.8-126.8-190.599-126.8-306.199 0-234 221.2-428.601 340.2-533.201 16.6-14.6 30.8-26.999 42.2-37.599 14.199-13.401 32.6-20 50.8-20s36.6 6.599 50.8 20c11.401 10.6 25.6 23.199 42.2 37.599 118.8 104.6 340.2 299.201 340.2 533.201-0.2 115.6-45.199 224.4-126.999 306.199zM486.4 38.6c-16.8-14.8-31.4-27.6-43.399-39.001-5.6-5.2-14.202-5.2-19.602 0-11.999 11.2-26.599 24-43.399 39.001-112.001 98.4-320 281.4-320 488.4 0 205.6 167.4 373 373.2 373s373.2-167.4 373.2-373.2c-0.2-206.8-208.2-389.8-320-488.2zM433.2 734.222c-105.199 0-190.801-85.6-190.801-190.799 0-105.201 85.602-190.801 190.801-190.801 105.201 0 190.801 85.399 190.801 190.601 0 105.199-85.6 190.999-190.801 190.999zM433.2 412.422c-72.199 0-130.799 58.8-130.799 130.801 0 71.999 58.798 130.799 130.799 130.799s130.801-58.8 130.801-130.799c0-72.001-58.8-130.801-130.801-130.801z" />
<glyph unicode="&#xe903;" glyph-name="4" horiz-adv-x="764" d="M381.831 960c-101.227-0.135-198.269-40.635-269.847-112.62s-111.85-169.579-111.984-271.38c0-275.68 355.739-620.959 370.853-635.519 2.94-2.874 6.878-4.481 10.978-4.481s8.038 1.607 10.978 4.481c15.114 14.56 370.853 359.839 370.853 635.519-0.134 101.801-40.406 199.395-111.984 271.38s-168.62 112.485-269.847 112.62zM381.831 400c-34.613 0-68.448 10.322-97.228 29.661s-51.21 46.826-64.456 78.987c-13.246 32.159-16.712 67.548-9.959 101.688s23.42 65.5 47.895 90.114 55.659 41.377 89.605 48.168c33.948 6.791 69.136 3.305 101.114-10.016s59.31-35.878 78.541-64.823c19.23-28.943 29.493-62.971 29.493-97.78-0.028-46.668-18.474-91.419-51.289-124.419-32.813-33.001-77.31-51.552-123.717-51.58z" />
<glyph unicode="&#xe904;" glyph-name="5" horiz-adv-x="1392" d="M920.313-64l-70.12 102.96c260.024 135.724 255.158 351.944 255.158 398.744-24.348-2.808-49.668-3.744-74.988-0.936-140.244 12.168-251.262 123.554-251.262 261.148 0 145.082 121.731 262.084 272.688 262.084 83.749 0 163.604-36.505 214.252-87.985 80.826-82.37 123.676-174.099 123.676-322.926 0-262.084-190.875-497.028-469.403-613.090zM141.214-64l-70.119 102.96c260.024 134.788 255.154 351.944 255.154 398.744-24.347-2.808-49.668-3.744-74.987-0.936-140.238 12.168-251.259 123.554-251.259 261.148 0 145.082 121.734 262.085 272.685 262.084 83.753 0 163.61-36.505 214.251-87.985 80.831-82.37 123.682-174.099 123.682-322.926 0-262.084-190.879-497.028-469.406-613.090z" />
<glyph unicode="&#xe905;" glyph-name="6" horiz-adv-x="1075" d="M194.56 652.8c-87.040 0-153.6 66.56-153.6 153.6s66.56 153.6 153.6 153.6 153.6-66.56 153.6-153.6-71.68-153.6-153.6-153.6zM194.56 883.2c-40.96 0-76.8-35.84-76.8-76.8s35.84-76.8 76.8-76.8 76.8 35.84 76.8 76.8-35.84 76.8-76.8 76.8zM194.56 294.4c-87.040 0-153.6 66.56-153.6 153.6s66.56 153.6 153.6 153.6 153.6-66.56 153.6-153.6-71.68-153.6-153.6-153.6zM194.56 524.8c-40.96 0-76.8-35.84-76.8-76.8s35.84-76.8 76.8-76.8 76.8 35.84 76.8 76.8-35.84 76.8-76.8 76.8zM194.56-64c-87.040 0-153.6 66.56-153.6 153.6s66.56 153.6 153.6 153.6 153.6-66.56 153.6-153.6-71.68-153.6-153.6-153.6zM194.56 166.4c-40.96 0-76.8-35.84-76.8-76.8s35.84-76.8 76.8-76.8 76.8 35.84 76.8 76.8-35.84 76.8-76.8 76.8zM450.56 857.6h614.4v-102.4h-614.4v102.4zM450.56 499.2h614.4v-102.4h-614.4v102.4zM450.56 140.8h614.4v-102.4h-614.4v102.4z" />
<glyph unicode="&#xe906;" glyph-name="7" horiz-adv-x="1081" d="M44.722 960h227.555v-227.556h-227.555v227.556zM44.722 561.778h227.555v-227.556h-227.555v227.556zM272.278 163.556h-227.555v-227.556h227.555v227.556zM442.944 960h227.554v-227.556h-227.554v227.556zM670.498 561.778h-227.554v-227.556h227.554v227.556zM442.944 163.556h227.554v-227.556h-227.554v227.556zM1068.72 960h-227.556v-227.556h227.556v227.556zM841.165 561.778h227.556v-227.556h-227.556v227.556zM1068.72 163.556h-227.556v-227.556h227.556v227.556z" />
<glyph unicode="&#xe907;" glyph-name="8" horiz-adv-x="1092" d="M728.637 821.63c-0.212 0-0.423 0-0.423 0h-254.294l58.88 59.649c17.706 17.938 17.706 47.114 0 65.268-17.707 17.938-46.507 17.938-64.427 0l-136.533-138.316c-1.067-1.081-2.133-2.161-2.987-3.458-0.427-0.432-0.853-1.081-1.28-1.729s-1.067-1.296-1.494-1.945c-0.427-0.649-0.853-1.297-1.28-1.945s-0.853-1.297-1.066-1.946c-0.427-0.648-0.64-1.296-1.067-2.161-0.213-0.649-0.64-1.297-0.853-1.946s-0.427-1.296-0.64-2.161c-0.214-0.649-0.64-1.513-0.853-2.161s-0.427-1.297-0.427-2.161c-0.214-0.864-0.427-1.513-0.64-2.377s-0.213-1.513-0.427-2.378c0-0.649-0.213-1.296-0.213-1.945-0.214-1.513-0.214-3.026-0.214-4.538s0-3.026 0.214-4.538c0-0.649 0.213-1.297 0.213-1.946 0.214-0.864 0.214-1.729 0.427-2.377 0.214-0.864 0.427-1.513 0.64-2.377 0.213-0.649 0.427-1.297 0.427-2.161 0.213-0.649 0.427-1.513 0.853-2.161 0.213-0.649 0.427-1.297 0.64-2.161 0.214-0.649 0.64-1.296 0.853-1.945 0.427-0.649 0.64-1.513 1.067-2.161s0.64-1.296 1.066-1.945c0.427-0.649 0.853-1.297 1.28-1.945s0.853-1.297 1.494-1.946c0.427-0.648 0.853-1.081 1.28-1.729 0.853-1.081 1.92-2.378 2.987-3.458l136.533-138.316c17.706-17.938 46.507-17.938 64.427 0 17.706 17.938 17.706 47.114 0 65.268l-58.88 59.649h253.864c0.218 0 0.218 0 0.43 0 151.040 0 273.067-123.62 273.067-276.632 0-67.213-26.453-130.32-72.745-177.22-17.708-17.934-17.708-47.111 0-65.27 17.702-17.934 46.503-17.934 64.423 0 62.935 64.41 99.198 150.855 99.198 242.705 0 203.801-162.557 368.699-363.52 368.916zM773.12 136.547c-0.212 0.86-0.212 1.727-0.423 2.376-0.218 0.867-0.43 1.516-0.642 2.376-0.218 0.649-0.43 1.516-0.43 2.164-0.212 0.649-0.423 1.509-0.853 2.157-0.212 0.649-0.423 1.297-0.853 2.164-0.212 0.649-0.635 1.297-0.853 1.946-0.423 0.649-0.635 1.509-1.065 2.157s-0.642 1.297-1.065 1.946c-0.43 0.649-0.853 1.297-1.283 1.946-0.423 0.649-0.853 1.297-1.488 1.946-0.43 0.649-0.853 1.079-1.283 1.727-0.853 1.085-1.918 2.164-2.983 3.243l-136.537 138.319c-17.706 17.938-46.507 17.938-64.427 0-17.707-17.938-17.707-47.114 0-65.266l58.88-59.651h-253.867c-0.213 0-0.214 0-0.427 0-151.040 0-273.067 123.621-273.067 276.634 0 67.213 26.453 130.32 72.746 177.218 17.707 17.938 17.707 47.114 0 65.268-17.706 17.938-46.507 17.938-64.427 0-62.506-63.971-98.773-150.419-98.773-242.486 0-203.8 162.56-368.486 363.52-368.916 0.213 0 0.427 0 0.427 0h254.293l-58.88-59.651c-17.706-17.934-17.706-47.111 0-65.263 17.707-17.94 46.507-17.94 64.427 0l136.533 138.315c1.065 1.079 2.13 2.157 2.983 3.454 0.43 0.437 0.853 1.085 1.283 1.734 0.423 0.649 1.065 1.297 1.495 1.946 0.423 0.649 0.853 1.297 1.277 1.946 0.43 0.649 0.853 1.297 1.072 1.939 0.423 0.649 0.635 1.297 1.065 2.164 0.212 0.649 0.642 1.297 0.853 1.946s0.423 1.297 0.853 2.164c0.212 0.649 0.635 1.509 0.853 2.157 0.212 0.649 0.423 1.297 0.423 2.164 0.218 0.86 0.43 1.509 0.642 2.376s0.212 1.727 0.43 2.376c0 0.649 0.212 1.297 0.212 1.946 0.212 1.516 0.212 3.024 0.212 4.54s0 3.024-0.212 4.54c-0.43 0.649-0.43 1.297-0.642 1.946z" />
<glyph unicode="&#xe908;" glyph-name="9" horiz-adv-x="1084" d="M770.825 960c-86.685 0-169.413-39.007-228.707-107.268-87.812 101.478-224.189 134.39-343.906 83.499-119.435-50.891-198.211-175.834-198.211-314.491 0-336.736 503.435-667.38 525.176-680.481 10.729-7.011 24.282-7.011 35.012 0 20.612 13.101 524.047 343.745 524.047 680.481-0.283 186.805-140.33 337.956-313.41 338.26zM542.118 15.92c-87.529 60.338-474.353 342.22-474.353 605.819 0 115.496 69.459 217.889 171.671 252.629s213.459-5.79 275.011-100.259c6.212-9.751 16.659-15.542 27.671-15.542s21.459 5.79 27.671 15.542c61.556 94.774 172.798 135.304 275.011 100.564s171.671-137.133 171.671-252.933c0-263.6-386.825-545.482-474.353-605.819z" />
<glyph unicode="&#xe909;" glyph-name="10" horiz-adv-x="1317" d="M1248.709 842.933c-46.826-20.811-96.256-33.819-148.29-41.623 52.034 31.218 93.659 80.646 111.865 140.48-49.423-28.616-104.060-49.428-163.891-62.436-46.826 49.428-114.461 80.646-187.304 80.646-140.481 0-254.946-114.465-254.946-254.945 0-20.811 2.602-39.022 7.805-57.232-210.719 10.406-400.627 111.863-528.099 267.952-20.812-39.022-33.819-80.646-33.819-127.472 0-88.45 44.225-166.494 114.465-213.321-41.623 2.602-80.646 13.008-117.066 31.218v-2.602c0-124.871 88.45-228.93 205.517-252.343-20.812-5.203-44.225-7.804-67.639-7.804-15.609 0-33.819 2.601-49.428 5.203 33.819-101.457 127.473-176.9 239.336-176.9-88.45-67.635-197.712-109.261-317.38-109.261-20.812 0-41.624 0-59.834 2.597 114.465-72.836 247.14-114.461 392.822-114.461 470.863 0 728.414 390.221 728.414 728.412 0 10.406 0 23.414 0 33.819 49.43 33.819 93.652 78.044 127.473 130.074z" />
<glyph unicode="&#xe90a;" glyph-name="11" horiz-adv-x="640" d="M192-64v448h-192v192h192v128c0 172.8 108.8 256 262.4 256 76.8 0 134.4-6.4 153.6-6.4v-179.2h-108.8c-83.2 0-102.4-38.4-102.4-96v-102.4h243.2l-64-192h-172.8v-448h-211.2z" />
<glyph unicode="&#xe90b;" glyph-name="12" d="M512 960c-281.6 0-512-230.4-512-512 0-217.6 134.4-403.2 326.4-473.6-6.4 38.4-6.4 102.4 0 147.2 6.4 38.4 57.6 256 57.6 256s-12.8 25.6-12.8 70.4c0 70.4 44.8 128 96 128 44.8 0 64-32 64-70.4 0-44.8-25.6-108.8-44.8-172.8-12.8-51.2 25.6-89.6 76.8-89.6 89.6 0 160 96 160 236.8 0 121.6-89.6 211.2-211.2 211.2-147.2 0-230.4-108.8-230.4-224 0-44.8 19.2-89.6 38.4-115.2 0-12.8 0-19.2 0-25.6-6.4-19.2-12.8-51.2-12.8-57.6s-6.4-12.8-19.2-6.4c-64 32-102.4 121.6-102.4 198.4 0 160 115.2 307.2 339.2 307.2 179.2 0 313.6-128 313.6-294.4 0-179.2-108.8-320-268.8-320-51.2 0-102.4 25.6-115.2 57.6 0 0-25.6-96-32-121.6-12.8-44.8-44.8-102.4-64-134.4 51.2-12.8 102.4-19.2 153.6-19.2 281.6 0 512 230.4 512 512s-230.4 512-512 512z" />
<glyph unicode="&#xe90c;" glyph-name="13" horiz-adv-x="1280" d="M898.901 43.989c-33.357-36.958-94.079-61.909-129.146-24.943-16.293 27.605-24.948 59.657-24.948 92.397s8.655 64.796 24.948 92.401l171.053 184.8h-855.28c-22.684 0-44.438 9.735-60.478 27.063s-25.051 40.831-25.051 65.337c0 24.506 9.011 48.009 25.051 65.336s37.794 27.063 60.478 27.063h855.28l-171.053 184.8c-16.293 27.604-24.948 59.663-24.948 92.401s8.655 64.796 24.948 92.4c35.067 36.96 95.789 7.392 129.146-30.492l355.797-369.601c8.021-8.59 14.379-18.809 18.722-30.069s6.579-23.337 6.579-35.535c0-12.198-2.236-24.275-6.579-35.535s-10.701-21.479-18.722-30.070l-355.797-367.755z" />
<glyph unicode="&#xe90d;" glyph-name="14" d="M394.666 405.312v-128h256v128h298.669v-298.666c0-11.315-4.496-22.17-12.499-30.17-8-8.003-18.851-12.496-30.17-12.496h-767.999c-11.316 0-22.168 4.493-30.17 12.496-8.001 8-12.497 18.854-12.497 30.17v298.666h298.666zM480 490.646h85.334v-128h-85.334v128zM309.333 746.646v128c0 11.316 4.495 22.168 12.497 30.17 8 8.002 18.854 12.497 30.17 12.497h341.334c11.315 0 22.166-4.495 30.17-12.497 8-8.002 12.496-18.854 12.496-30.17v-128h170.666c11.318 0 22.17-4.495 30.17-12.497 8.003-8.002 12.499-18.854 12.499-30.17v-213.333h-298.669v85.331h-256v-85.331h-298.666v213.333c0 11.316 4.495 22.168 12.497 30.17s18.854 12.497 30.17 12.497h170.667zM394.666 831.979v-85.333h256v85.333h-256z" />
<glyph unicode="&#xe90e;" glyph-name="15" d="M957.44 51.2c-48.64 69.12-115.2 128-192 166.4-35.84 17.92-71.68 33.28-107.52 40.96 107.52 53.76 184.32 163.84 184.32 294.4-2.56 181.76-148.48 330.24-327.68 330.24s-327.68-148.48-327.68-327.68c0-130.56 76.8-243.2 186.88-294.4-35.84-10.24-69.12-23.040-102.4-40.96-76.8-38.4-140.8-97.28-192-166.4-7.68-12.8-5.12-28.16 5.12-35.84 12.8-7.68 28.16-5.12 35.84 5.12 43.52 64 104.96 115.2 174.080 151.040s145.92 53.76 222.72 53.76c76.8 0 153.6-17.92 222.72-53.76s128-87.040 174.080-151.040c7.68-12.8 23.040-15.36 35.84-5.12 12.8 5.12 15.36 23.040 7.68 33.28zM514.56 279.040c-151.040 0-276.48 122.88-276.48 276.48 0 151.040 122.88 276.48 276.48 276.48 151.040 0 273.92-125.44 273.92-276.48 0-153.6-122.88-276.48-273.92-276.48z" />
<glyph unicode="&#xe90f;" glyph-name="16" d="M867.84 568.32c-51.2 53.76-120.32 87.040-194.56 97.28-15.36 38.4-38.4 71.68-69.12 102.4-56.32 56.32-138.24 89.6-220.16 89.6s-163.84-33.28-222.72-92.16c-58.88-58.88-89.6-138.24-89.6-220.16v-263.68c0-12.8 5.12-25.6 15.36-35.84s23.040-15.36 35.84-15.36h230.4c23.040-53.76 58.88-99.84 107.52-135.68 51.2-35.84 115.2-56.32 179.2-56.32h263.68c12.8 0 25.6 5.12 35.84 15.36s15.36 23.040 15.36 35.84v263.68c0 79.36-33.28 156.16-87.040 215.040zM122.88 281.6v263.68c0 69.12 28.16 135.68 76.8 184.32s115.2 76.8 184.32 76.8 135.68-28.16 184.32-76.8c48.64-48.64 76.8-115.2 76.8-184.32v0c0-69.12-28.16-135.68-76.8-184.32s-115.2-76.8-184.32-76.8h-261.12zM903.68 89.6h-263.68c-53.76 0-107.52 17.92-151.040 48.64-33.28 23.040-61.44 56.32-81.92 94.72 74.24 5.12 145.92 38.4 199.68 92.16 58.88 58.88 92.16 138.24 92.16 222.72v0c0 23.040-2.56 43.52-7.68 66.56 53.76-10.24 102.4-38.4 140.8-76.8 46.080-48.64 71.68-112.64 71.68-179.2v-268.8z" />
<glyph unicode="&#xe910;" glyph-name="17" d="M512 864c-230.4 0-416-185.6-416-416s185.6-416 416-416 416 185.6 416 416-185.6 416-416 416zM480 96c-96 9.6-179.2 54.4-236.8 124.8l236.8 166.4v-291.2zM480 464l-272-192c-32 51.2-48 112-48 176 0 182.4 140.8 332.8 320 352v-336zM544 96v288l236.8-166.4c-57.6-64-140.8-112-236.8-121.6zM544 464v336c179.2-16 320-166.4 320-352 0-64-16-124.8-48-176l-272 192z" />
<glyph unicode="&#xe911;" glyph-name="18" d="M560 480h-96c-12.8 0-25.6 6.4-35.2 12.8-9.6 9.6-12.8 22.4-12.8 35.2s6.4 25.6 12.8 35.2c9.6 9.6 22.4 12.8 35.2 12.8h144c19.2 0 32 12.8 32 32s-12.8 32-32 32h-64v32c0 19.2-12.8 32-32 32s-32-12.8-32-32v-32h-16c-28.8 0-57.6-12.8-80-32-22.4-22.4-32-48-32-80s12.8-57.6 32-80c22.4-22.4 48-32 80-32h96c12.8 0 25.6-6.4 35.2-12.8 9.6-9.6 12.8-22.4 12.8-35.2s-6.4-25.6-12.8-35.2c-9.6-9.6-22.4-12.8-35.2-12.8h-144c-19.2 0-32-12.8-32-32s12.8-32 32-32h64v-32c0-19.2 12.8-32 32-32s32 12.8 32 32v32h16c28.8 0 57.6 12.8 80 32 22.4 22.4 32 48 32 80s-12.8 57.6-32 80c-22.4 19.2-51.2 32-80 32zM512 864c-230.4 0-416-185.6-416-416s185.6-416 416-416 416 185.6 416 416-185.6 416-416 416zM512 96c-195.2 0-352 156.8-352 352s156.8 352 352 352c195.2 0 352-156.8 352-352s-156.8-352-352-352z" />
<glyph unicode="&#xe912;" glyph-name="19" horiz-adv-x="1401" d="M1293.474-64h-404.211c-26.947 0-53.895 10.779-75.453 32.337s-32.337 48.505-32.337 75.453v592.842c0 86.232 32.337 167.074 97.011 226.358 59.284 64.674 140.126 97.011 226.358 97.011 32.337 0 53.895-21.558 53.895-53.895s-21.558-53.895-53.895-53.895c-59.284 0-113.179-21.558-150.905-64.674s-64.674-91.621-64.674-150.905v-53.895h404.211c26.947 0 53.895-10.779 75.453-32.337s32.337-48.505 32.337-75.453v-431.158c0-26.947-10.779-53.895-32.337-75.453s-48.505-32.337-75.453-32.337zM889.263 474.947v-431.158h404.211v431.158h-404.211zM512-64h-404.211c-26.947 0-53.895 10.779-75.453 32.337s-32.337 48.505-32.337 75.453v592.842c0 86.232 32.337 167.074 97.011 226.358 59.284 64.674 140.126 97.011 226.358 97.011 32.337 0 53.895-21.558 53.895-53.895s-21.558-53.895-53.895-53.895c-59.284 0-113.179-21.558-150.905-64.674-43.116-37.726-64.674-91.621-64.674-150.905v-53.895h404.211c26.947 0 53.895-10.779 75.453-32.337s32.337-48.505 32.337-75.453v-431.158c0-26.947-10.779-53.895-32.337-75.453s-48.505-32.337-75.453-32.337zM107.789 474.947v-431.158h404.211v431.158h-404.211z" />
<glyph unicode="&#xe913;" glyph-name="20" d="M512 757.334c-110.294 0-200-89.707-200-200 0-110.291 89.706-199.998 200-199.998s199.997 89.733 199.997 199.998c0 110.266-89.733 200-199.997 200zM512 437.335c-66.16 0-120 53.838-120 119.998s53.84 120 120 120c66.161 0 120.003-53.84 120.003-120s-53.842-119.998-120.003-119.998zM512 960c-287.093 0-512-224.907-512-512 0-288.108 225.92-512 512-512 286.454 0 512 224.323 512 512 0 287.093-224.906 512-512 512zM512 16c-94 0-180.054 28.559-250.24 77.681 47.093 93.384 144.187 154.322 250.24 154.322 106.056 0 203.146-60.938 250.24-154.322-70.185-49.096-156.242-77.681-250.24-77.681zM824.479 146.934c-25.999 45.466-61.706 84.772-105.201 115.441-60.877 42.931-132.557 65.623-207.278 65.623s-146.4-22.692-207.28-65.623c-43.493-30.669-79.2-69.975-105.2-115.441-74.373 77.251-119.52 182.907-119.52 301.066 0 242.24 189.76 432 432 432 242.237 0 432-189.76 432-432 0-118.159-45.148-223.816-119.521-301.066z" />
<glyph unicode="&#xe914;" glyph-name="21" d="M810.665 874.666h-42.665v42.667c0 11.316-4.495 22.168-12.498 30.17s-18.852 12.497-30.167 12.497c-11.315 0-22.17-4.495-30.172-12.497s-12.498-18.854-12.498-30.17v-42.667h-341.331v42.667c0 11.316-4.495 22.168-12.497 30.17s-18.854 12.497-30.17 12.497c-11.316 0-22.168-4.495-30.17-12.497s-12.497-18.854-12.497-30.17v-42.667h-42.666c-56.559-0.068-110.782-22.565-150.775-62.559s-62.491-94.216-62.559-150.774v-511.998c0.068-56.561 22.566-110.781 62.559-150.779 39.993-39.992 94.216-62.49 150.775-62.556h597.331c56.561 0.067 110.781 22.564 150.779 62.556 39.992 39.997 62.49 94.218 62.556 150.779v511.998c-0.067 56.559-22.564 110.781-62.556 150.774-39.997 39.993-94.218 62.491-150.779 62.559zM85.334 661.334c0 33.948 13.486 66.505 37.49 90.509s56.562 37.491 90.51 37.491h597.331c33.951 0 66.509-13.486 90.511-37.491s37.489-56.562 37.489-90.509v-42.667h-853.331v42.667zM810.665 21.335h-597.331c-33.948 0-66.505 13.486-90.51 37.489s-37.49 56.561-37.49 90.511v383.998h853.331v-383.998c0-33.951-13.486-66.509-37.489-90.511s-56.561-37.489-90.511-37.489zM512 256c35.348 0 64 28.652 64 64s-28.652 64-64 64c-35.346 0-64-28.652-64-64s28.654-64 64-64zM298.666 256c35.346 0 64 28.652 64 64s-28.654 64-64 64c-35.346 0-64-28.652-64-64s28.654-64 64-64zM725.335 256c35.343 0 64 28.652 64 64s-28.657 64-64 64c-35.348 0-64-28.652-64-64s28.652-64 64-64z" />
<glyph unicode="&#xe915;" glyph-name="22" d="M977.029 29.334h-930.492c-25.709 0-46.537-20.828-46.537-46.558 0-25.689 20.828-46.517 46.537-46.517h930.469c25.709 0 46.537 20.828 46.537 46.517-0.020 25.73-20.849 46.558-46.513 46.558zM104.67 150.231c-25.709 0-46.537-20.828-46.537-46.534 0-25.709 20.828-46.561 46.537-46.561h814.172c25.709 0 46.537 20.852 46.537 46.561 0 25.706-20.828 46.534-46.537 46.534h-11.612v418.744h11.612c12.875 0 23.245 10.414 23.245 23.245s-10.414 23.245-23.245 23.245h-814.172c-12.854 0-23.247-10.414-23.247-23.245s10.414-23.245 23.247-23.245h11.634v-418.72l-11.634-0.024zM814.155 568.975v-418.72h-139.564v418.72h139.564zM581.516 568.975v-418.72h-139.564v418.72h139.564zM209.334 568.975h139.567v-418.72h-139.567v418.72zM46.537 657.344h930.471c0.15 0 0.324 0 0.457 0 25.73 0 46.534 20.828 46.534 46.537 0 20.436-13.158 37.756-31.437 44.031l-461.664 207.737c-12.134 5.447-26.013 5.447-38.168 0l-465.28-209.349c-20.022-9.020-31.024-30.763-26.406-52.201 4.597-21.438 23.552-36.754 45.491-36.754z" />
<glyph unicode="&#xe916;" glyph-name="23" d="M158 386.799h91.266v-67.366h-91.266v67.366zM963.314 565.2h-902.638c-33.088 0-59.91-26.822-59.91-59.911v-509.389c0-33.085 26.822-59.907 59.91-59.907h902.638c33.085 0 59.907 26.822 59.907 59.911v509.385c0 33.089-26.822 59.911-59.907 59.911zM242.387 65.993h-148.284v59.907h148.284v-59.907zM309.175 309.405c0-27.529-22.396-49.923-49.924-49.923h-111.238c-27.528 0-49.924 22.395-49.924 49.923v87.334c0 27.529 22.396 49.927 49.924 49.927h111.236c27.528 0 49.924-22.398 49.924-49.927l0.002-87.334zM471.552 65.993h-148.283v59.907h148.283v-59.907zM700.72 65.993h-148.282v59.907h148.282v-59.907zM929.888 65.993h-148.285v59.907h148.285v-59.907zM805.014 814.469l-127.986 127.984c-23.395 23.396-61.327 23.396-84.726 0l-317.336-317.336h351.513l178.534 189.352zM801.348 625.163l93.676 99.354-47.616 47.616-138.575-146.97h92.515zM963.304 625.161c12.868 0 25.262-2.064 36.888-5.836l-62.809 62.808-53.716-56.974 79.636 0.002z" />
<glyph unicode="&#xe917;" glyph-name="24" horiz-adv-x="1075" d="M906.24 550.4c-10.24 0-20.48 5.12-25.6 20.48-15.36 51.2-40.96 97.28-76.8 133.12s-81.92 61.44-133.12 76.8c-15.36 5.12-20.48 15.36-20.48 30.72 5.12 15.36 15.36 20.48 30.72 20.48 56.32-15.36 112.64-46.080 153.6-87.040s71.68-97.28 87.040-153.6c10.24-25.6 5.12-40.96-10.24-40.96-5.12 0-5.12 0-5.12 0zM778.24 514.56c-10.24 0-20.48 5.12-25.6 20.48-5.12 30.72-20.48 56.32-40.96 76.8-20.48 15.36-46.080 30.72-71.68 40.96-15.36 0-25.6 15.36-20.48 30.72s15.36 20.48 30.72 20.48c35.84-10.24 71.68-30.72 97.28-56.32s46.080-61.44 56.32-97.28c5.12-15.36-5.12-25.6-20.48-30.72 0-5.12 0-5.12-5.12-5.12zM742.4 69.12c-153.6 0-296.96 61.44-404.48 168.96s-163.84 250.88-163.84 399.36c0 51.2 20.48 102.4 56.32 143.36s81.92 66.56 133.12 76.8c10.24 0 25.6 0 35.84-5.12 10.24-10.24 20.48-20.48 25.6-30.72l81.92-189.44c0-5.12 5.12-15.36 5.12-25.6s-5.12-20.48-10.24-25.6c0 0-66.56-97.28-66.56-102.4s0-5.12 0-5.12c30.72-61.44 81.92-112.64 143.36-143.36 0 0 5.12 0 5.12 0s102.4 66.56 102.4 66.56c10.24 5.12 15.36 10.24 25.6 10.24s20.48 0 25.6-5.12l189.44-81.92c10.24-5.12 20.48-15.36 25.6-25.6s10.24-25.6 5.12-35.84c-5.12-51.2-30.72-102.4-71.68-138.24-35.84-30.72-87.040-51.2-143.36-51.2zM373.76 806.4c-40.96-5.12-76.8-25.6-102.4-56.32-30.72-30.72-46.080-71.68-46.080-112.64 0-138.24 56.32-266.24 153.6-368.64s230.4-153.6 368.64-153.6c40.96 0 81.92 15.36 107.52 40.96 30.72 25.6 51.2 61.44 56.32 102.4 0 0 0 5.12-5.12 5.12l-189.44 92.16c-5.12 0-5.12 0-5.12 0l-102.4-66.56c-10.24-5.12-15.36-10.24-25.6-10.24s-20.48 0-30.72 5.12c-71.68 35.84-133.12 92.16-168.96 168.96 0 0 0 0 0 0 0 5.12-5.12 15.36 0 25.6 0 10.24 5.12 20.48 10.24 25.6 0 0 66.56 97.28 66.56 102.4s0 5.12 0 5.12-81.92 184.32-81.92 189.44c-5.12 5.12-5.12 5.12-5.12 5.12z" />
<glyph unicode="&#xe918;" glyph-name="25" d="M921.6 739.84c0 0 0 5.12 0 0 0 5.12-5.12 10.24-5.12 10.24s0 0 0 5.12c0 0 0 0 0 0s-5.12 5.12-5.12 5.12c0 0 0 0-5.12 0 0 0-5.12 0-5.12 0s-5.12 0-5.12 0c0 0 0 0 0 0h-768c0 0 0 0 0 0s-5.12 0-5.12 0c0 0-5.12 0-5.12 0s0 0-5.12 0c0 0-5.12 0-5.12-5.12 0 0 0 0 0 0s0 0 0-5.12c0 0 0-5.12-5.12-5.12 0 0 0-5.12 0-5.12s0 0 0-5.12v-542.72c0-15.36 5.12-30.72 15.36-40.96s25.6-15.36 40.96-15.36h706.56c15.36 0 30.72 5.12 40.96 15.36s15.36 25.6 15.36 40.96v547.84c0 0 0 0 0 0zM829.44 709.12l-317.44-291.84-317.44 291.84h634.88zM865.28 186.88h-706.56l-5.12 5.12v486.4l343.040-312.32c5.12-5.12 10.24-5.12 15.36-5.12s10.24 0 15.36 5.12l343.040 312.32v-486.4l-5.12-5.12z" />
<glyph unicode="&#xe919;" glyph-name="26" d="M975.238 752h-341.334c-77.594 0-152.010-30.343-206.88-84.353-54.867-54.012-85.69-127.266-85.69-203.647s30.822-149.635 85.69-203.648c54.87-54.010 129.286-84.352 206.88-84.352h341.334v-96c0-12.73-5.139-24.941-14.282-33.942-9.146-9.002-21.549-14.058-34.48-14.058h-877.715c-12.932 0-25.335 5.056-34.48 14.058s-14.282 21.213-14.282 33.942v768c0 12.73 5.137 24.94 14.282 33.941s21.547 14.059 34.48 14.059h877.715c12.931 0 25.334-5.057 34.48-14.059 9.142-9.002 14.282-21.211 14.282-33.941v-96zM633.904 656h390.096v-384h-390.096c-51.728 0-101.341 20.227-137.92 56.237-36.576 36.006-57.126 84.842-57.126 135.763s20.55 99.757 57.126 135.763c36.579 36.010 86.192 56.237 137.92 56.237v0zM633.904 512v-96h146.288v96h-146.288z" />
<glyph unicode="&#xe91a;" glyph-name="27" horiz-adv-x="1056" d="M639.379 960c93.69 0.045 184.563-32.041 257.466-90.904 72.899-58.864 123.424-140.948 143.139-232.564 19.715-91.613 7.434-187.219-34.797-270.874s-111.856-150.298-197.267-188.816c-27.299-60.371-68.832-113.219-121.037-154.010s-113.523-68.307-178.694-80.189c-65.168-11.885-132.25-7.779-195.485 11.965-63.236 19.741-120.741 54.531-167.583 101.386s-81.623 104.371-101.361 167.622c-19.738 63.251-23.843 130.349-11.963 195.536 11.88 65.184 39.39 126.518 80.171 178.733 40.781 52.218 93.616 93.762 153.974 121.069 32.467 71.853 84.968 132.813 151.204 175.568s143.402 65.49 222.234 65.478v0zM485.786 601.53h-102.397v-51.21c-33.274 0.080-65.269-12.803-89.208-35.917s-37.937-54.646-39.029-87.907c-1.092-33.264 10.809-65.645 33.18-90.282 22.371-24.634 53.453-39.587 86.66-41.69l8.397-0.256h102.397l4.608-0.41c5.901-1.069 11.242-4.179 15.085-8.784 3.846-4.605 5.952-10.413 5.952-16.413s-2.106-11.808-5.952-16.413c-3.843-4.605-9.184-7.712-15.085-8.781l-4.608-0.41h-204.792v-102.422h102.396v-51.21h102.397v51.21c33.27-0.080 65.267 12.803 89.206 35.917s37.936 54.643 39.030 87.907c1.091 33.264-10.81 65.645-33.181 90.278-22.371 24.637-53.453 39.59-86.659 41.693l-8.397 0.256h-102.397l-4.608 0.41c-5.901 1.069-11.242 4.176-15.085 8.781-3.846 4.605-5.952 10.416-5.952 16.416s2.106 11.808 5.952 16.413c3.843 4.605 9.184 7.712 15.085 8.781l4.608 0.41h204.79v102.422h-102.394v51.21zM639.379 857.58c-43.382 0.051-86.278-9.112-125.856-26.883-39.574-17.771-74.925-43.745-103.715-76.203 57.866 3.514 115.821-5.3 170.029-25.859 54.205-20.558 103.434-52.393 144.426-93.4 40.989-41.005 72.81-90.246 93.357-144.47s29.354-112.192 25.834-170.074c46.55 41.398 79.418 95.971 94.246 156.483 14.826 60.512 10.912 124.102-11.222 182.339-22.138 58.236-61.45 108.365-112.723 143.739s-112.086 54.321-174.374 54.328v0z" />
<glyph unicode="&#xe91b;" glyph-name="28" d="M617.939 730.968c47.347-29.686 80.547-79.921 86.592-138.232 19.309-9.024 40.742-14.211 63.462-14.211 82.95 0 150.182 67.231 150.182 150.169 0 82.95-67.232 150.181-150.182 150.181-82.157-0.025-148.8-66.056-150.054-147.907zM519.552 423.475c82.95 0 150.182 67.245 150.182 150.179 0 82.939-67.245 150.17-150.182 150.17s-150.208-67.244-150.208-150.183c0-82.934 67.27-150.166 150.208-150.166zM583.258 413.238h-127.434c-106.032 0-192.291-86.272-192.291-192.301v-155.843l0.396-2.442 10.734-3.36c101.186-31.616 189.093-42.16 261.451-42.16 141.325 0 223.238 40.294 228.288 42.861l10.032 5.075h1.072v155.869c0.038 106.029-86.221 192.301-192.25 192.301zM831.725 568.275h-126.451c-1.366-50.592-22.963-96.15-57.123-128.915 94.246-28.026 163.203-115.424 163.203-218.653v-48.026c124.854 4.576 196.8 39.962 201.542 42.339l10.032 5.085h1.072v155.894c0 106.016-86.259 192.275-192.275 192.275zM256.032 578.499c29.38 0 56.714 8.576 79.869 23.181 7.363 48.012 33.101 89.966 69.866 118.541 0.154 2.812 0.422 5.597 0.422 8.434 0 82.95-67.245 150.182-150.157 150.182-82.963 0-150.182-67.232-150.182-150.182 0-82.912 67.219-150.156 150.182-150.156zM390.902 439.36c-33.99 32.598-55.51 77.914-57.085 128.202-4.688 0.342-9.328 0.714-14.107 0.714h-127.421c-106.029 0-192.289-86.259-192.289-192.275v-155.869l0.396-2.403 10.735-3.386c81.174-25.341 153.619-37.021 216.544-40.701v47.066c0.026 103.229 68.957 190.602 163.228 218.653z" />
<glyph unicode="&#xe91c;" glyph-name="29" horiz-adv-x="878" d="M394.971-54.857c-5.486 0-12.8 1.829-18.286 3.657-18.286 7.314-29.257 27.429-27.429 47.543l40.229 314.514h-281.6c-32.914 0-53.029 0-73.143 14.629-16.457 12.8-25.6 32.914-25.6 54.857 0 23.771 14.629 40.229 34.743 65.829l407.771 488.229c12.8 16.457 34.743 20.114 53.029 12.8s29.257-27.429 27.429-47.543l-40.229-314.514h281.6c32.914 0 53.029 0 73.143-14.629 16.457-12.8 25.6-32.914 25.6-54.857 0-23.771-14.629-40.229-34.743-65.829l-407.771-488.229c-9.143-10.971-21.943-16.457-34.743-16.457zM126.171 402.286h314.514c12.8 0 25.6-5.486 34.743-14.629s12.8-23.771 10.971-36.571l-25.6-210.286 294.4 354.743h-314.514c-12.8 0-25.6 5.486-34.743 14.629s-12.8 23.771-10.971 36.571l25.6 210.286-294.4-354.743zM800.914 491.886v0 0z" />
<glyph unicode="&#xe91d;" glyph-name="30" d="M512.010 387.003c-209.121 0-386.526 67.617-474.86 168.686v-20.362c2.013-139.927 215.023-254.108 474.86-254.108 256.573 0 474.010 117.079 474.839 255.672v18.808c-88.323-101.069-265.728-168.696-474.839-168.696zM512.010 221.256c-208.625 0-386.376 67.848-474.86 169.044v-27.046c2.013-139.917 215.023-254.098 474.86-254.098 256.573 0 474.010 117.079 474.839 255.662v25.354c-88.379-101.194-265.925-168.916-474.839-168.916zM512.010 49.157c-208.625 0-386.376 67.848-474.86 169.042v-28.032c2.013-139.94 215.023-254.124 474.86-254.124 256.573 0 474.010 117.082 474.839 255.675v26.355c-88.379-101.197-265.925-168.916-474.839-168.916zM611.843 637.202c0 8.924-4.946 15.667-14.815 20.244-9.882 4.577-25.019 8.018-45.427 10.353v-59.922c40.156 3.407 60.242 13.184 60.242 29.325zM427.226 749.139c10.353-4.682 26.066-8.294 47.119-10.836v61.197c-23.639-1.703-39.987-5.154-49.073-10.354-9.068-5.21-13.596-11.746-13.596-19.601-0.003-8.938 5.174-15.736 15.549-20.406zM512.010 447.030c257.403 0 474.839 117.448 474.839 256.492 0 139.030-217.436 256.479-474.839 256.479-257.4 0-474.86-117.449-474.86-256.481 0-139.041 217.462-256.489 474.86-256.489zM316.925 803.76c7.785 10.939 18.944 20.396 33.531 28.367 14.577 7.961 32.312 14.391 53.204 19.292 20.89 4.877 44.462 8.282 70.676 10.203v32.819h77.258v-31.887c23.639-0.84 47.693-2.6 72.148-5.245 24.445-2.681 46.889-6.338 67.284-10.998v-63.108c-49.879 10.63-96.353 16.564-139.433 17.853v-70.757c20.408-2.128 40.573-4.946 60.495-8.443 19.924-3.509 37.732-8.593 53.445-15.3 15.703-6.693 28.495-15.461 38.387-26.298 9.869-10.826 14.815-24.742 14.815-41.746 0-27.205-14.508-48.568-43.471-64.061-29-15.519-70.216-25.183-123.661-29v-32.832h-77.258v31.232c-31.739 0.643-61.612 2.496-89.633 5.578-28.012 3.082-51.249 7.386-69.722 12.908v62.451c12.641-2.98 24.94-5.578 36.925-7.823 11.986-2.22 24.282-4.129 36.925-5.729 12.631-1.6 25.917-2.865 39.849-3.83 13.906-0.955 29.138-1.541 45.658-1.748v69.804c-20.385 1.91-40.63 4.521-60.716 7.811-20.096 3.29-38.144 8.225-54.18 14.817-16.036 6.58-29.071 15.311-39.101 26.135-10.056 10.825-15.058 24.858-15.058 42.067-0.010 14.050 3.866 26.518 11.63 37.469z" />
<glyph unicode="&#xe91e;" glyph-name="31" d="M572.365 657.882c-12.549 21.737-35.267 34.852-60.365 34.852s-47.816-13.115-60.365-34.852l-152.643-264.384c-12.552-21.734-12.552-47.967 0-69.706 12.547-21.734 35.267-34.852 60.365-34.852h305.285c25.098 0 47.816 13.117 60.365 34.852 12.552 21.74 12.552 47.972 0 69.706l-152.643 264.384zM596.183 874.226c57.4-11.274 110.738-33.868 157.617-65.338l84.058 37.33 72.361-72.358-37.32-84.030c31.483-46.884 54.070-100.242 65.347-157.658l85.755-33.006v-102.331l-85.775-33.019c-11.274-57.4-33.869-110.738-65.339-157.617l37.33-84.058-72.358-72.361-84.029 37.32c-46.881-31.483-100.239-54.072-157.655-65.347l-33.004-85.755h-102.336l-33.019 85.773c-57.403 11.274-110.74 33.869-157.619 65.339l-84.055-37.332-72.36 72.361 37.322 84.029c-31.484 46.881-54.070 100.244-65.348 157.658l-85.754 33.006v102.333l85.768 33.016c11.272 57.405 33.864 110.751 65.34 157.627l-37.328 84.048 72.36 72.36 84.055-37.33c46.879 31.47 100.216 54.064 157.622 65.338l33.016 85.774h102.331l33.019-85.774zM512 757.676c-171.028 0-309.678-138.648-309.678-309.676s138.65-309.676 309.678-309.676c171.028 0 309.678 138.647 309.678 309.676s-138.65 309.676-309.678 309.676zM512 386.245c12.91 0 23.378-10.468 23.378-23.378s-10.468-23.375-23.378-23.375c-12.913 0-23.378 10.465-23.378 23.375 0 12.913 10.465 23.378 23.378 23.378zM512 427.976c-9.82 0-17.882 7.777-18.237 17.59l-4.613 127.736c-0.184 5.135 1.533 9.626 5.102 13.327 3.569 3.699 7.995 5.578 13.135 5.578 6.52 0 2.703 0 9.226 0 5.138 0 9.564-1.879 13.133-5.578 3.571-3.702 5.289-8.192 5.102-13.327l-4.613-127.736c-0.353-9.812-8.415-17.59-18.235-17.59z" />
<glyph unicode="&#xe91f;" glyph-name="32" d="M675.464 445.117c0.428 7.473 0.806 15.071 0.932 23.283-38.144-11.174-77.42-18.022-117.089-20.429-2.15-0.156-4.298-0.292-6.456-0.43-5.171-0.31-10.322-0.612-15.593-0.799-0.963-0.038-1.884-0.146-2.857-0.184v-33.152c21.181-8.98 44.096-13.092 67.075-12.022 30.574 0.691 58.591 17.254 73.989 43.732zM688.955 639.401c0.136-1.48 0.077-2.89 0.202-4.36 0.899-11.023 1.536-22.136 1.536-33.395 0-7.48-3.72-14.467-9.889-18.614-50.56-31.135-108.539-47.9-167.78-48.515-59.251 0.614-117.228 17.38-167.788 48.515-6.172 4.147-9.892 11.133-9.892 18.614 0 11.259 0.637 22.372 1.536 33.385 0.125 1.48 0.069 2.89 0.205 4.37-42.399-16.98-68.36-39.263-68.36-60.134 0-20.859 25.603-42.988 68.339-60.004 2.947-1.188 6.085-2.258 9.137-3.377 44.329-15.101 90.611-23.644 137.375-25.336 1.324-0.069 2.609-0.187 3.932-0.243 8.364-0.343 16.863-0.527 25.516-0.538 8.645-0.008 17.142 0.177 25.508 0.538 1.331 0.056 2.606 0.174 3.919 0.243 46.774 1.692 93.046 10.225 137.385 25.336 3.052 1.119 6.193 2.189 9.137 3.377 42.737 17.016 68.342 39.114 68.342 60.004 0 20.902-25.961 43.154-68.36 60.134zM423.775 401.39c22.733-1.091 45.42 3.039 66.345 12.099v33.073c-0.952 0.038-1.876 0.146-2.829 0.184-5.202 0.184-10.309 0.486-15.424 0.799-2.135 0.136-4.25 0.271-6.385 0.428-39.245 2.406-78.098 9.254-115.832 20.429 0.125-8.212 0.499-15.811 0.924-23.283 15.232-26.476 42.957-43.046 73.201-43.727zM513.014 868.4c-233.585 0-422.939-189.015-422.939-422.177 0-233.152 189.354-422.164 422.939-422.164 233.574 0 422.93 189.012 422.93 422.164-0.261 233.057-189.46 421.916-422.93 422.177zM721.167 485.194c0.020-3.789 0.128-7.808 0.097-11.451 5.179-0.077 10.301-1.257 14.996-3.448 7.8-3.653 28.516-13.335 19.738-88.822-5.489-30.533-22.73-57.715-48.044-75.727 5.151-44.68-13.117-88.847-48.325-116.908-15.14-13.809-28.498-29.453-39.757-46.577-17.848-25.326-36.301-51.551-80.471-51.551h-52.787c-44.17 0-62.62 26.225-80.471 51.551-11.259 17.114-24.617 32.758-39.757 46.566-35.208 28.060-53.473 72.238-48.323 116.91-25.121 17.846-42.314 44.728-47.956 74.972-8.868 76.25 11.848 85.932 19.651 89.574 4.695 2.202 9.807 3.392 14.994 3.469-0.028 3.643 0.079 7.652 0.097 11.441-50.714 23.78-81.217 56.758-81.217 94.346 0 45.55 43.969 84.803 120.51 109.199 5.74 29.8 14.705 58.895 26.726 86.762 5.381 11.953 15.77 20.92 28.383 24.524 12.623 3.604 26.194 1.459 37.084-5.836 3.543-2.367 7.396-5.189 11.579-8.252 18.071-16.243 40.888-26.283 65.098-28.64 24.202 2.367 47.007 12.407 65.080 28.65 4.191 3.053 8.044 5.875 11.579 8.242 10.898 7.305 24.481 9.441 37.105 5.836 12.631-3.604 23.020-12.581 28.411-24.543 12.012-27.867 20.966-56.952 26.706-86.743 76.524-24.397 120.492-63.649 120.492-109.199 0-37.588-30.492-70.566-81.219-94.346zM601.92 356.91c-30.651-1.405-61.174 4.723-88.906 17.861-27.74-13.138-58.263-19.267-88.914-17.861-45.573 0.581-87.578 24.842-110.968 64.079-0.387-11.594 0.087-23.201 1.411-34.729 4.155-20.14 16.771-37.504 34.593-47.657 1.469-0.55 2.88-1.27 4.186-2.132 6.62-4.324 10.447-11.837 10.081-19.75l-0.184-3.617c-1.731-35-2.967-60.306 32.737-91.789 17.784-16.154 33.482-34.488 46.712-54.569 17.446-24.909 23.933-32.791 43.988-32.791h52.708c20.055 0 26.542 7.882 43.988 32.791 13.23 20.081 28.928 38.415 46.712 54.569 35.704 31.483 34.468 56.778 32.737 91.789l-0.184 3.617c-0.366 7.913 3.471 15.427 10.081 19.75 1.306 0.863 2.716 1.582 4.186 2.132 18.094 10.327 30.776 28.070 34.729 48.579 1.236 11.226 1.661 22.523 1.285 33.818-23.391-39.247-65.405-63.508-110.979-64.090zM513.011 579.786c7.724 0 15.278 0.366 22.618 1.032 38.61 3.784 76.081 15.214 110.216 33.618-0.056 1.743-0.261 3.43-0.346 5.174-0.32 6.326-0.724 12.692-1.37 19.144-0.348 3.438-0.84 6.743-1.275 10.112-0.596 4.759-1.224 9.533-1.997 14.341-4.995 32.164-13.926 63.599-26.591 93.597-3.223-1.926-6.541-4.353-10.138-6.992-25.464-22.034-57.487-35.093-91.118-37.154-33.644 2.061-65.667 15.12-91.131 37.154-3.597 2.639-6.904 5.066-9.933 7.088-12.8-29.999-21.798-61.471-26.796-93.704-0.771-4.805-1.398-9.582-1.997-14.349-0.425-3.343-0.916-6.636-1.262-10.045-0.648-6.482-1.052-12.856-1.372-19.203-0.084-1.725-0.289-3.389-0.346-5.125 21.885-11.727 45.148-20.695 69.263-26.675 20.785-5.238 42.13-7.926 63.572-8.013zM839.388 52.070c24.422 20.303 46.932 42.821 67.226 67.267 0.54 0.648 1.083 1.295 1.615 1.953 173.258 211.108 150.41 521.027-51.914 704.461-202.335 183.435-512.996 175.881-706.172-17.179-193.175-193.059-200.914-503.712-17.595-706.154 183.31-202.442 493.206-225.475 704.432-52.339 0.801 0.658 1.605 1.324 2.409 1.992zM45.783 445.581c0 257.974 209.126 467.1 467.1 467.1 257.964 0 467.087-209.127 467.087-467.1 0-257.964-209.124-467.090-467.087-467.090-257.849 0.289-466.81 209.242-467.1 467.090z" />
<glyph unicode="&#xe920;" glyph-name="33" d="M782.134 863.291h-60.029v-113.937l-210.104 183.845-512-449.508 39.512-45.199 82.295 73.508v-549.156h780.386v549.156l82.296-73.508 39.511 45.199-241.866 213.135v166.465zM512 82.903c-127.683 0-222.766 62.405-226.752 65.073l33.239 49.976c0.366-0.228 16.842-10.575 43.438-22.185v417.39h60.029v-150.075h240.12v-60.029h-60.029v-60.029h60.029v-147.389c26.621 11.643 43.026 22.044 43.382 22.287l33.298-49.946c-3.988-2.668-99.072-65.073-226.755-65.073zM421.949 383.099h120.059v-60.029h-120.059v60.029zM421.949 155.192c26.796-7.002 57.019-12.252 90.045-12.252 33.132 0 63.319 5.202 90.045 12.15v107.909h-180.091v-107.807z" />
<glyph unicode="&#xe921;" glyph-name="34" d="M1017.231 464.428l-232.719 232.723c-8.36 9.762-23.055 10.9-32.816 2.538-9.761-8.36-10.898-23.052-2.538-32.813 0.779-0.91 1.627-1.76 2.538-2.538l192.925-193.162h-921.35c-12.852 0-23.272-10.419-23.272-23.274 0-12.851 10.42-23.27 23.272-23.27h921.35l-192.925-192.925c-9.761-8.36-10.898-23.051-2.538-32.816 8.364-9.761 23.051-10.898 32.816-2.538 0.907 0.783 1.759 1.631 2.538 2.538l232.722 232.726c9.022 9.073 9.022 23.731-0.004 32.812z" />
<glyph unicode="&#xe922;" glyph-name="35" d="M785.865 305.080c0 19.715 16.005 35.721 35.721 35.721 19.719 0 35.724-16.005 35.724-35.721v-333.397c0-19.719-16.005-35.721-35.724-35.721-19.715 0-35.721 16.002-35.721 35.721v333.397zM654.889 102.69c-19.719 0-35.724 16.005-35.724 35.724 0 19.715 16.005 35.721 35.724 35.721h333.394c19.719 0 35.721-16.005 35.721-35.721 0-19.719-16.002-35.724-35.721-35.724h-333.394zM440.552 960c144.599 0 261.956-117.355 261.956-261.954s-117.357-261.952-261.956-261.952c-144.597 0-261.952 117.354-261.952 261.952s117.355 261.954 261.952 261.954zM440.552 888.558c-105.161 0-190.51-85.349-190.51-190.512 0-105.161 85.349-190.511 190.51-190.511 105.165 0 190.512 85.35 190.512 190.511 0 105.162-85.347 190.512-190.512 190.512zM35.721-64.065c-11.478 0-21.718 5.431-28.291 13.906-3.572 4.287-6.287 9.909-7.144 17.289-0.191 1.43-0.286 2.956-0.286 4.526 0 0.191 0 0.382 0 0.57v47.060c0 203.844 165.269 369.114 369.118 369.114h261.953c19.715 0 35.721-16.002 35.721-35.721s-16.005-35.721-35.721-35.721h-261.953c-164.413 0-297.676-133.263-297.676-297.673v-47.060c0-33.72-35.721-36.291-35.721-36.291z" />
<glyph unicode="&#xe923;" glyph-name="36" d="M244.493 567.067c-17.078 0-30.926-13.848-30.926-30.928 0-17.077 13.848-30.925 30.926-30.925h331.596c17.080 0 30.928 13.848 30.928 30.925 0 17.080-13.848 30.928-30.928 30.928h-331.596zM393.591 391.468h-149.098c-17.078 0-30.926-13.851-30.926-30.928s13.848-30.925 30.926-30.925h149.098c17.077 0 30.925 13.848 30.925 30.925s-13.848 30.928-30.925 30.928zM389.018-2.147h-235.383c-50.616 0-91.748 41.301-91.748 92.092v626.426c0 50.788 41.132 92.091 91.748 92.091h63.88v-7.766c0-45.118 36.699-81.783 81.817-81.783h295.518c45.117 0 81.818 36.665 81.818 81.783v7.766h63.57c51.439 0 91.713-40.445 91.713-92.091v-176.279c0-17.077 13.848-30.928 30.925-30.928 17.080 0 30.928 13.851 30.928 30.928v176.279c0 84.875-68.898 153.943-153.6 153.943h-63.57v7.904c0 45.118-36.7 81.782-81.818 81.782h-295.518c-45.118 0-81.817-36.665-81.817-81.782v-7.904h-63.845c-84.704 0-153.634-69.068-153.634-153.943v-626.426c0-84.876 68.931-153.945 153.634-153.945h235.383c17.077 0 30.925 13.848 30.925 30.925 0 17.080-13.848 30.928-30.925 30.928zM279.401 878.218c0 10.996 8.934 19.93 19.93 19.93h295.518c10.994 0 19.93-8.934 19.93-19.93v-77.487c0-10.996-8.936-19.93-19.93-19.93h-295.518c-10.996 0-19.93 8.934-19.93 19.93v77.487zM958.563 401.278c-42.336 42.366-116.248 42.4-158.618 0l-274.176-274.179c-8.83-8.83-14.606-20.033-16.701-32.369l-15.049-88.965c-3.195-19.070 3.092-38.656 16.77-52.299 11.305-11.305 26.597-17.49 42.298-17.49 3.335 0 6.632 0.273 9.933 0.823l88.928 15.019c12.336 2.096 23.538 7.868 32.369 16.698l274.179 274.179c43.742 43.708 43.742 114.838 0.068 158.583zM641.673 12.776l-86.627-17.285 14.5 87.866 196.519 196.519 71.165-71.165-195.557-195.936zM914.787 286.437l-33.884-33.949-71.127 71.13 33.915 33.915c9.482 9.486 22.129 14.742 35.529 14.742 13.469 0 26.081-5.222 35.567-14.742 19.62-19.62 19.62-51.473 0-71.096z" />
<glyph unicode="&#xe924;" glyph-name="37" horiz-adv-x="1092" d="M318.948 597.518c-32.622 0-59.067-26.443-59.067-59.064 0-32.625 26.445-59.068 59.067-59.068s59.068 26.443 59.068 59.068c0 32.621-26.447 59.064-59.068 59.064zM189 538.453c0 71.765 58.18 129.947 129.948 129.947 71.769 0 129.946-58.181 129.946-129.947 0-71.769-58.177-129.949-129.946-129.949-71.768 0-129.948 58.18-129.948 129.949zM467.603 226.335c-59.057-66.13-120.651-156.583-185.769-272.329-9.598-17.056-31.207-23.105-48.266-13.507-17.058 9.602-23.107 31.205-13.509 48.265 66.484 118.166 130.941 213.422 194.671 284.785 63.57 71.185 128.143 120.552 195.267 143.797 68.413 23.692 136.724 19.255 204.073-12.141 66.171-30.843 130.28-87.105 193.949-165.233 12.363-15.172 10.090-37.499-5.082-49.862-15.176-12.367-37.499-10.086-49.865 5.086-60.133 73.793-116.227 121.19-168.946 145.77-51.535 24.016-100.799 26.764-150.931 9.404-51.429-17.811-106.38-57.726-165.591-124.034zM65.741 791.728c42.095 42.095 99.186 65.738 158.714 65.738h344.008c19.572 0 35.441-15.867 35.441-35.44s-15.869-35.44-35.441-35.44h-344.008c-40.732 0-79.794-16.178-108.594-44.978s-44.981-67.866-44.981-108.597v-472.537c0-40.728 16.18-79.79 44.981-108.592 28.802-28.805 67.865-44.984 108.594-44.984h567.045c40.728 0 79.793 16.179 108.595 44.984 28.798 28.802 44.981 67.864 44.981 108.592v236.268c0 19.572 15.865 35.441 35.441 35.441 19.572 0 35.437-15.869 35.437-35.441v-236.268c0-59.532-23.644-116.62-65.737-158.713s-99.185-65.744-158.717-65.744h-567.045c-59.531 0-116.621 23.651-158.714 65.744s-65.741 99.181-65.741 158.713v472.537c0 59.529 23.647 116.623 65.741 158.717zM874.226 511.068c-19.572 0-35.441 15.865-35.441 35.437v378.032c0 19.573 15.869 35.44 35.441 35.44s35.441-15.867 35.441-35.44v-378.032c0-19.572-15.869-35.437-35.441-35.437zM899.273 521.448c-13.841-13.841-36.277-13.841-50.118 0l-151.211 151.211c-13.841 13.84-13.841 36.28 0 50.12s36.277 13.84 50.118 0l126.153-126.153 126.153 126.153c13.841 13.84 36.28 13.84 50.118 0 13.841-13.841 13.841-36.28 0-50.12l-151.214-151.211z" />
<glyph unicode="&#xe925;" glyph-name="38" horiz-adv-x="853" d="M853.333 448l-832-480.354v960.71l832-480.355z" />
<glyph unicode="&#xe926;" glyph-name="39" horiz-adv-x="1088" d="M569.618 942.838l138.478-323.164 354.496-29.756c5.421-0.449 10.592-2.486 14.867-5.855s7.456-7.923 9.158-13.091c1.696-5.168 1.837-10.721 0.397-15.967s-4.397-9.951-8.499-13.528l-268.64-229.746 80.314-341.843c1.222-5.325 0.845-10.886-1.082-15.994-1.933-5.107-5.338-9.53-9.773-12.71-4.442-3.181-9.728-4.979-15.187-5.165-5.459-0.192-10.854 1.242-15.501 4.109l-304.646 181.306-304.646-181.306c-4.648-2.867-10.042-4.301-15.502-4.109-5.46 0.186-10.742 1.984-15.183 5.165s-7.841 7.603-9.773 12.71c-1.932 5.107-2.309 10.669-1.084 15.994l78.931 341.843-267.258 229.746c-4.101 3.577-7.056 8.282-8.496 13.528s-1.303 10.799 0.396 15.967c1.699 5.168 4.884 9.721 9.157 13.091s9.444 5.405 14.868 5.855l354.498 29.756 138.476 323.164c2.086 5.077 5.636 9.419 10.198 12.475s9.929 4.688 15.42 4.688c5.491 0 10.859-1.632 15.42-4.688s8.111-7.398 10.198-12.475z" />
<glyph unicode="&#xe927;" glyph-name="40" d="M512 896c-247.38 0-448-200.62-448-448s200.62-448 448-448c247.381 0 448 200.619 448 448s-200.619 448-448 448zM373.522 204.241h-115.622v347.831h115.622v-347.831zM315.72 599.567h-0.753c-38.798 0-63.892 26.705-63.892 60.095 0 34.125 25.865 60.095 65.415 60.095s63.892-25.97 64.645-60.095c0-33.373-25.095-60.095-65.415-60.095zM790.426 204.241h-115.605v186.078c0 46.763-16.747 78.665-58.573 78.665-31.936 0-50.961-21.508-59.324-42.283-3.063-7.437-3.797-17.813-3.797-28.207v-194.253h-115.605c0 0 1.523 315.213 0 347.849h115.605v-49.246c15.364 23.697 42.854 57.419 104.192 57.419 76.075 0 133.107-49.717 133.107-156.555v-199.467z" />
<glyph unicode="&#xe928;" glyph-name="41" d="M512 896c-247.323 0-448-200.677-448-448 0-247.326 200.677-448 448-448 246.835 0 448 200.674 448 448 0 247.323-201.165 448-448 448zM807.91 689.492c53.453-65.111 85.521-148.199 86.494-238.092-12.634 2.428-138.97 28.181-266.274 12.147-2.914 6.319-5.346 13.12-8.26 19.921-7.774 18.466-16.521 37.414-25.267 55.394 140.911 57.335 205.052 139.94 213.308 150.63zM512 829.917c97.178 0 186.099-36.442 253.641-96.208-6.805-9.718-64.627-86.976-200.678-137.995-62.682 115.158-132.164 209.423-142.853 224 28.664 6.803 58.796 10.204 89.891 10.204zM349.225 793.961c10.203-13.605 78.231-108.356 141.881-221.084-178.811-47.621-336.729-46.648-353.735-46.648 24.781 118.56 104.954 217.198 211.854 267.732zM129.111 447.514c0 3.887 0 7.774 0 11.661 16.521-0.482 202.135-2.914 393.091 54.421 11.179-21.376 21.38-43.243 31.1-65.109-4.86-1.459-10.206-2.918-15.061-4.373-197.277-63.65-302.231-237.606-310.978-252.181-60.737 67.537-98.152 157.431-98.152 255.582zM512 65.109c-88.435 0-170.065 30.127-234.69 80.661 6.802 14.089 84.545 163.746 300.285 239.061 0.973 0.486 1.459 0.486 2.432 0.973 53.931-139.452 75.802-256.555 81.63-290.082-46.161-19.921-96.695-30.613-149.658-30.613zM725.308 130.705c-3.883 23.326-24.294 135.083-74.342 272.593 120.021 18.948 224.973-12.147 238.093-16.525-16.521-106.411-77.743-198.242-163.75-256.068z" />
<glyph unicode="&#xe929;" glyph-name="42" d="M490.667 874.667c-247.38 0-448-200.62-448-448s200.62-448 448-448c247.381 0 448 200.619 448 448s-200.619 448-448 448zM720.986 538.579c0.226-4.97 0.333-9.973 0.333-14.999 0-153.438-116.796-330.381-330.402-330.398-65.573 0-126.595 19.213-177.993 52.169 9.082-1.067 18.34-1.613 27.703-1.613 54.407 0 104.475 18.551 144.235 49.702-50.838 0.943-93.695 34.509-108.483 80.657 7.087-1.365 14.368-2.099 21.822-2.099 10.605 0 20.86 1.434 30.625 4.092-53.13 10.641-93.153 57.596-93.153 113.822 0 0.525 0 0.998 0.017 1.489 15.645-8.7 33.548-13.931 52.588-14.528-31.185 20.809-51.677 56.371-51.677 96.654 0 21.28 5.757 41.213 15.732 58.362 57.26-70.262 142.853-116.48 239.348-121.327-1.997 8.503-3.029 17.378-3.029 26.477 0 64.102 52.011 116.112 116.13 116.112 33.408 0 63.578-14.122 84.753-36.698 26.462 5.215 51.294 14.893 73.745 28.193-8.678-27.108-27.089-49.84-51.063-64.225 23.484 2.818 45.884 9.047 66.675 18.288-15.522-23.293-35.247-43.75-57.907-60.13z" />
<glyph unicode="&#xe92a;" glyph-name="43" d="M960 446.396c0-231.228-172.8-420.702-393.6-446.396v346.837h105.6l16 122.035h-118.4v73.866c0 35.326 9.6 57.807 60.8 57.807h64v112.401c-32 3.212-60.8 3.212-92.8 3.212-92.8 0-156.8-57.807-156.8-160.573v-89.92h-105.6v-122.035h105.6v-343.629c-217.6 35.328-380.8 221.589-380.8 446.396 0 247.281 201.6 449.604 448 449.604s448-202.323 448-449.604z" />
<glyph unicode="&#xe92b;" glyph-name="44" d="M846.774 655.9h164.104v-719.864h-164.104v719.864zM446.351 555.3h-164.101v-619.213h164.101v619.213zM728.602 424h-164.101v-487.931h164.101v487.931zM164.103 321.101h-164.103v-385.096h164.103v385.096zM923.177 960c-45.888 0-83.085-37.172-83.085-83.027 0-10.732 2.061-20.979 5.77-30.394l-160.125-136.409c-11.75 6.361-25.208 9.973-39.511 9.973-23.747 0-45.148-9.971-60.291-25.933l-138.232 56.613c0.013 0.536 0.044 1.068 0.044 1.608 0 45.855-37.199 83.027-83.087 83.027s-83.085-37.172-83.085-83.027c0-4.641 0.399-9.185 1.132-13.618l-143.611-84.91c-14.141 11.141-31.978 17.807-51.384 17.807-45.887 0-83.086-37.171-83.086-83.026s37.199-83.028 83.086-83.028c45.887 0 83.084 37.174 83.084 83.028 0 4.641-0.398 9.185-1.131 13.617l143.611 84.913c14.141-11.141 31.98-17.81 51.387-17.81 23.747 0 45.151 9.971 60.291 25.933l138.232-56.612c-0.010-0.538-0.041-1.068-0.041-1.608 0-45.855 37.197-83.026 83.085-83.026s83.085 37.171 83.085 83.026c0 9.608-1.651 18.826-4.657 27.41l161.894 137.917c11.052-5.433 23.478-8.498 36.628-8.498 45.888 0 83.085 37.172 83.085 83.027s-37.199 83.027-83.087 83.027z" />
<glyph unicode="&#xe92c;" glyph-name="45" horiz-adv-x="1280" d="M600.182 410.427l-193.126 193.132c-9.155 9.152-9.155 23.995 0 33.149 9.152 9.155 23.997 9.155 33.149 0l193.812-193.81c-12.247 247.672-217.585 445.402-468.242 445.402v-10.314c0-246.936 191.906-449.874 434.407-467.559zM921.088 660.119c9.152 9.155 23.997 9.155 33.149 0 9.155-9.155 9.155-23.997 0-33.149l-217.836-217.841h37.171c258.514 0 468.828 210.314 468.828 468.827v82.044h-70.326c-258.511 0-468.826-210.315-468.826-468.826v-48.896l217.838 217.841zM1165.199 457.82l-210.819-210.821c-14.075-38.525-49.083-67.525-93.138-76.675l-280.366-81.774c-12.659-3.694-25.928 3.781-29.261 16.64-3.218 12.424 4.756 25.050 17.078 28.644l280.351 81.769c0.691 0.166 1.393 0.338 2.084 0.504 35.727 7.191 54.679 30.996 60.503 50.898 4.826 16.484 1.638 32.166-8.52 41.958-17.354 16.724-53.297 17.661-98.614 2.57-1.034-0.343-2.102-0.627-3.174-0.827l-187.53-35.162c-7.603-1.423-15.424 0.993-20.895 6.464-138.44 138.437-305.779 129.892-459.117-23.439-4.396-4.398-10.359-6.868-16.575-6.868h-99.62c-9.712 0-17.586-7.875-17.586-17.587v-222.682c0-9.713 7.873-17.585 17.586-17.585h146.504c1.876 0 3.759-0.23 5.582-0.676 360.888-88.092 603.077-74.563 740.372 41.377l339.213 339.215c14.787 14.784 20.823 35.994 15.506 57.329-1.196 4.797-3.072 9.426-5.548 13.704-20.593 35.594-67.103 39.933-94.016 13.023z" />
<glyph unicode="&#xe92d;" glyph-name="46" horiz-adv-x="1050" d="M254.735 721.321h14.915c22.664 0 41.037 18.379 41.037 41.038v155.606c0 22.659-18.373 41.035-41.037 41.035h-14.915c-22.663 0-41.035-18.377-41.035-41.035v-155.606c0-22.659 18.372-41.038 41.035-41.038zM781.089 722.321h14.915c22.664 0 41.034 18.377 41.034 41.038v155.608c0 22.656-18.371 41.033-41.034 41.033h-14.915c-22.666 0-41.039-18.377-41.039-41.033v-155.606c0.005-22.663 18.376-41.040 41.039-41.040zM975.726 875.6h-105.321v-122.975c0-41.022-33.372-63.65-74.388-63.65h-14.915c-41.021 0-74.394 33.375-74.394 74.397v112.227h-362.662v-113.244c0-41.022-33.372-74.397-74.394-74.397h-14.915c-41.020 0-74.393 33.374-74.393 74.397v113.244h-113.631c-36.786 0-66.714-29.928-66.714-66.716v-806.155c0-36.79 29.928-66.716 66.714-66.716h909.012c36.787 0 66.714 29.926 66.714 66.716v806.155c0.003 36.786-29.926 66.716-66.714 66.716zM975.726 2.729h-909.010l-0.002 608.786h909.025l0.036-608.783c-0.005 0-0.018-0.003-0.049-0.003zM555.674 407.276h119.79c4.746 0 8.596 3.85 8.596 8.599v103.726c0 4.749-3.85 8.599-8.596 8.599h-119.79c-4.749 0-8.599-3.85-8.599-8.599v-103.726c0-4.749 3.85-8.599 8.599-8.599zM751.148 407.276h119.79c4.749 0 8.599 3.85 8.599 8.599v103.726c0 4.749-3.85 8.599-8.599 8.599h-119.79c-4.749 0-8.596-3.85-8.596-8.599v-103.726c0-4.749 3.848-8.599 8.596-8.599zM164.673 237.473h119.786c4.749 0 8.599 3.85 8.599 8.599v103.729c0 4.749-3.85 8.599-8.599 8.599h-119.786c-4.748 0-8.598-3.85-8.598-8.599v-103.729c0-4.749 3.85-8.599 8.598-8.599zM360.174 237.473h119.788c4.746 0 8.596 3.85 8.596 8.599v103.729c0 4.749-3.85 8.599-8.596 8.599h-119.788c-4.749 0-8.599-3.85-8.599-8.599v-103.729c0-4.749 3.85-8.599 8.599-8.599zM555.674 237.473h119.788c4.749 0 8.599 3.85 8.599 8.599v103.729c0 4.749-3.85 8.599-8.599 8.599h-119.788c-4.749 0-8.599-3.85-8.599-8.599v-103.729c0-4.749 3.85-8.599 8.599-8.599zM751.148 237.473h119.79c4.749 0 8.599 3.85 8.599 8.599v103.729c0 4.749-3.85 8.599-8.599 8.599h-119.79c-4.749 0-8.596-3.85-8.596-8.599v-103.729c0-4.749 3.848-8.599 8.596-8.599zM284.46 188.6h-119.786c-4.748 0-8.598-3.85-8.598-8.599v-103.729c0-4.749 3.85-8.599 8.598-8.599h119.786c4.749 0 8.599 3.85 8.599 8.599v103.729c-0.003 4.749-3.853 8.599-8.599 8.599zM479.962 188.6h-119.788c-4.749 0-8.599-3.85-8.599-8.599v-103.729c0-4.749 3.85-8.599 8.599-8.599h119.788c4.746 0 8.596 3.85 8.596 8.599v103.729c0 4.749-3.85 8.599-8.596 8.599zM675.464 188.6h-119.79c-4.749 0-8.599-3.85-8.599-8.599v-103.729c0-4.749 3.85-8.599 8.599-8.599h119.79c4.746 0 8.596 3.85 8.596 8.599v103.729c0 4.749-3.85 8.599-8.596 8.599zM870.938 188.6h-119.79c-4.749 0-8.596-3.85-8.596-8.599v-103.729c0-4.749 3.848-8.599 8.596-8.599h119.79c4.749 0 8.599 3.85 8.599 8.599v103.729c0 4.749-3.85 8.599-8.599 8.599z" />
<glyph unicode="&#xe92e;" glyph-name="47" horiz-adv-x="1203" d="M726.556-64h-105.825v86.418c28.915-35.535 64.888-65.027 105.825-86.418zM353.055 232.891l45.066-79.864 45.069 79.864-22.177 260.268h-45.78l-22.177-260.268zM636.815 466.207c-36.183 17.26-76.588 26.952-119.117 26.952h-58.404l22.362-262.83h-0.069c0.253-3.668-0.463-7.452-2.424-10.867l-64.428-114.202c-1.636-3-4.129-5.563-7.268-7.386-9.16-5.169-20.744-1.892-25.843 7.201l-63.644 112.84c-2.491 3.53-3.738 7.844-3.346 12.436l22.362 262.83h-58.404c-153.2 0-278.592-125.391-278.592-278.589v-236.204c0-23.283 19.107-42.388 42.459-42.388h133.123v166.789c0 10.524 8.515 19.039 19.037 19.039s19.037-8.515 19.037-19.039v-166.789h368.908v144.568c-23.928 46.313-37.404 98.831-37.404 154.56 0.023 89.418 34.821 170.714 91.656 231.078zM398.147 566.746c108.316 0 196.695 88.312 196.695 196.628s-88.379 196.627-196.695 196.627c-108.25 0-196.628-88.31-196.628-196.627 0-108.315 88.355-196.628 196.628-196.628zM1072.32 235.128c0-52.452-21.253-99.94-55.588-134.3-34.406-34.406-81.897-55.657-134.346-55.657-52.452 0-99.894 21.251-134.3 55.657-34.337 34.337-55.588 81.825-55.588 134.3 0 52.449 21.251 99.94 55.588 134.3 34.406 34.404 81.825 55.657 134.3 55.657 52.449 0 99.94-21.253 134.346-55.657 34.335-34.36 55.588-81.851 55.588-134.3zM950.735 220.014c-2.353 3.668-5.307 7.13-8.768 10.522-12.554 12.232-29.169 16.154-46.892 20.352-14.72 3.461-30.413 7.201-39.043 16.084-1.961 1.961-3.461 4.524-4.385 7.314-1.385 3.924-1.569 8.448-0.645 12.762 0.924 4.178 2.954 8.123 6.208 11.261 2.422 2.422 5.699 4.454 9.807 5.814 1.382 0.463 2.744 0.855 3.991 1.178 3.599 0.855 7.268 1.385 11.054 1.569h1.708c6.136 0.069 12.367-0.852 17.928-2.954 8.054-2.952 14.653-8.445 17.469-16.753 0.323-0.783 0.53-1.569 0.714-2.353 2.493-10.199 12.831-16.407 23.030-13.87 10.199 2.493 16.407 12.762 13.87 22.961-0.463 1.961-0.993 3.786-1.569 5.494-6.925 20.467-22.246 33.551-40.43 40.22-4.244 1.638-8.768 2.813-13.268 3.668v21.967c0 10.478-8.561 19.039-19.105 19.039-10.524 0-19.039-8.561-19.039-19.039v-22.751c-0.461-0.072-0.922-0.187-1.382-0.325-2.563-0.576-4.915-1.313-7.132-2.030-9.738-3.346-17.789-8.376-24.205-14.653-8.84-8.63-14.4-19.29-16.868-30.413-2.355-10.985-1.708-22.5 1.823-33.044 2.675-7.985 7.13-15.437 13.153-21.576 16.474-16.937 37.75-21.967 57.687-26.698 12.439-2.954 24.138-5.699 29.053-10.476 1.316-1.316 2.422-2.678 3.392-4.132 2.675-4.129 3.599-8.699 3-13.015-0.648-4.636-2.954-9.16-6.484-12.828-1.178-1.178-2.609-2.355-4.247-3.461-1.892-1.247-3.853-2.286-5.883-3.139-8.909-3.668-19.684-4.57-30.231-1.708-10.476 2.813-20.605 9.482-28.058 20.859-2.171 3.277-4.063 6.876-5.701 10.801-3.991 9.692-15.183 14.259-24.852 10.268-9.692-4.060-14.328-15.183-10.268-24.852 2.609-6.277 5.629-11.976 8.952-17.006 12.623-19.361 30.021-30.945 48.205-36.298v-23.813c0-10.524 8.515-19.108 19.039-19.108 10.522 0 19.105 8.561 19.105 19.108v21.389c6.415 1.039 12.623 2.816 18.391 5.24 4.316 1.823 8.445 3.991 12.093 6.415 3.853 2.56 7.452 5.491 10.729 8.837 9.162 9.485 15.114 21.53 16.868 34.266 1.777 13.061-0.852 26.747-8.814 38.907zM1181.56 235.128c0-164.759-134.415-299.128-299.197-299.128-164.713 0-299.128 134.346-299.128 299.128s134.415 299.128 299.128 299.128c164.782-0.023 299.197-134.369 299.197-299.128zM1110.464 235.128c0 62.996-25.567 119.969-66.78 161.229-41.283 41.283-98.301 66.78-161.298 66.78-62.927 0-119.969-25.521-161.229-66.78s-66.78-98.255-66.78-161.229c0-62.996 25.521-119.969 66.78-161.229s98.301-66.78 161.229-66.78c62.996 0 120.038 25.498 161.298 66.78 41.19 41.26 66.78 98.232 66.78 161.229z" />
<glyph unicode="&#xe92f;" glyph-name="48" d="M384.010 149.334h128v258.474l-170.666 148.822-170.667-148.822v-258.474h128v170.666h85.332v-170.666zM896.010 64h-767.999c-11.316 0-22.169 4.496-30.17 12.496-8.002 8.003-12.497 18.854-12.497 30.17v320.557c-0.001 6.096 1.305 12.122 3.83 17.67s6.209 10.493 10.805 14.499l156.032 136.064v193.877c0 11.316 4.495 22.168 12.497 30.17s18.854 12.497 30.17 12.497h597.332c11.315 0 22.17-4.495 30.17-12.497 8.003-8.002 12.499-18.854 12.499-30.17v-682.668c0-11.315-4.496-22.166-12.499-30.17-8-8-18.854-12.496-30.17-12.496zM682.678 490.666v-85.331h85.331v85.331h-85.331zM682.678 320v-85.334h85.331v85.334h-85.331zM682.678 661.333v-85.333h85.331v85.333h-85.331zM512.010 661.333v-85.333h85.334v85.333h-85.334z" />
<glyph unicode="&#xe930;" glyph-name="49" d="M477.398 398.634l58.922-334.634h-365.653c-23.552 0-42.667 19.114-42.667 42.666v230.317l349.398 61.651zM853.334 832c23.552 0 42.666-19.115 42.666-42.667v-682.668c0-23.552-19.114-42.666-42.666-42.666h-230.317l-135.424 768h365.741zM400.938 832l61.613-349.354-334.55-58.966v365.653c0 23.552 19.115 42.667 42.667 42.667h230.271z" />
<glyph unicode="&#xe931;" glyph-name="50" d="M466.574 960c257.235 0 466.52-209.284 466.52-466.574 0-111.274-39.183-227.042-104.448-293.807l195.354-195.354-68.265-68.265-195.354 195.297c-65.766-65.265-182.533-104.392-293.807-104.392-257.29 0-466.574 209.285-466.574 466.52 0 257.29 209.284 466.574 466.574 466.574zM466.574 123.418c204.013 0 370.008 165.996 370.008 370.008s-165.996 370.007-370.008 370.007c-204.067 0-370.063-165.996-370.063-370.007 0-204.013 165.996-370.008 370.063-370.008z" />
</font>
</defs>
</svg>
